<?xml version="1.0" encoding="UTF-8"?>
<svg id="Layer_1" xmlns="http://www.w3.org/2000/svg" version="1.1" viewBox="0 0 288 288">
  <!-- Generator: Adobe Illustrator 29.6.0, SVG Export Plug-In . SVG Version: 2.1.1 Build 207)  -->
  <defs>
    <style>
      .st0 {
        fill: #4f5a4a;
      }

      .st1 {
        fill: #721b12;
      }

      .st2 {
        fill: #fff;
      }

      .st3 {
        fill: #77846e;
        stroke: #77846e;
        stroke-miterlimit: 10;
      }
    </style>
  </defs>
  <path class="st3" d="M217,37c-.3-.2-.7-.1-1.1,0-.4.2-.8.5-1.1,1-1.1,1.8-2.2,3.7-3.2,5.5-1.8,3.2-3.4,6.4-5.2,9.5-2.2,4-4.4,8-6.6,12-.6,1.1-1.2,2.1-2.2,2.9-.5.4-1.1.5-1.6.3-.4-.1-.7-.6-.7-1,0-.4.1-.7.3-1.1,1.8-3.9,3.8-7.6,5.8-11.4,2.5-4.6,5-9.2,7.5-13.9,1.1-2,2.2-3.9,3.2-5.9.3-.6.3-1.2,0-1.7-.4-.6-1.6-.5-2.1.4-1.5,2.8-3.1,5.5-4.6,8.3-1.3,2.3-2.5,4.5-3.8,6.8-1.2,2.1-2.4,4.3-3.6,6.4-1.3,2.3-2.7,4.6-4,6.8-.7,1.1-1.2,2.3-2.5,2.9-1.1.6-2,.2-2.2-1-.2-1,.4-1.8.8-2.7,2-4.1,4.4-8.1,6.6-12.2,2.6-4.8,5.6-9.5,8.2-14.3.6-1.2,1.5-2.2,1.7-3.6,0-.5.2-.9-.3-1.2-.5-.3-.9-.1-1.4.1-.3.1-.4.4-.6.6-1.1,1.3-1.8,2.8-2.7,4.2-1.2,1.8-2.2,3.6-3.2,5.5-.8,1.5-1.8,3-2.7,4.4-1.2,2.1-2.5,4.2-3.7,6.3-1.2,2-2.4,4-3.6,6-.8,1.4-1.6,2.7-2.7,4-.4.5-1.6.8-2.1.6-.7-.4-.7-1.1-.5-1.7,0-.2,0-.5.2-.7.7-1.3,1.4-2.7,2.1-4,1.1-2,2.3-4,3.5-6,1.1-1.9,2.2-3.7,3.3-5.6,1-1.8,2.1-3.5,3.1-5.3,1.3-2.2,2.6-4.3,3.8-6.5.6-1.1,1.3-2.2,1.7-3.5.1-.4.1-.8-.2-1.1-.3-.3-.7-.3-1.1,0-.2.1-.4.2-.5.4-.9,1.3-1.9,2.6-2.7,4-.9,1.7-2.1,3.2-3.1,4.8-1,1.6-2.1,3.3-3.2,4.9-1.5,2.1-2.8,4.3-4.2,6.5-1.2,1.8-2.4,3.6-3.6,5.3-1.7,2.6-3.5,5.3-5.1,7.9-1.1,1.7-1.5,3.6-1.4,5.6.1,2.2,1.3,4.1,1.9,6.1.4,1.5.7,3.1.3,4.7-.3,1.3-.9,2.5-1.6,3.7-1.2,2-2.5,4-3.7,6-.9,1.5-1.8,3-2.8,4.4-1.1,1.6-2.1,3.3-3.2,4.9-1,1.6-2.1,3.1-3.1,4.6-1.1,1.7-2.2,3.4-3.3,5.1-.8,1.2-1.7,2.4-2.4,3.6-1.3,2.2-2.8,4.3-4.2,6.5-.7,1.1-1.5,2.2-2.2,3.3-1.1,1.7-2.2,3.4-3.3,5.1-.7,1-1.4,2.1-2.1,3.2-3.2-6.7-6.2-13.4-9.1-19.7-.1,0-.3,0-.4,0-.1,0-.3,0-.4,0,0,0-.2,0-.2,0-.3,0-.5.1-.8.2-.1,0-.2,0-.3.1,0,0,0,0,0,0,0,0-.1,0-.2.1-.1,0-.2.1-.4.2,0,0-.4.3-.1,0-.3.2-.5.4-.9.4-.4,0-.7-.1-1-.4-.3-.2-.4-.6-.5-.9,0-.3,0-.8.3-1,1.1-.9,2.4-1.5,3.8-1.6-6.1-13-11.9-24.3-18.1-31.5-2.8,1.9-5.3,4-7.6,6.5-1.2,1.2-3.2-.6-2-1.8,2.3-2.5,5-4.7,7.8-6.7-5-5.1-10.2-7.5-16.2-6-.2.1-.4.3-.6.4-1.5-9.7-4.3-23.8-8.4-25.4-1.6,0-.9,5.3-.2,8-6.9-8.4-7.3-23.9-12.6-26.9-5.5-3.2-3.3,16.7,0,18.8-5.4-4.4-17.6-9.6-22.8-7.6-4.9,1.8,26.9,17,28.6,17.8-1.1-.5-14.2-6.6-15.2-2.9,14.1,7.2,22.7,15.5,27.3,21.1-7.8,8.3-1.3,18.8,11.1,32.5,1.9-2.6,4.7-4.5,7.9-5.2.7-.2,1.5.1,1.7.9.2.6-.1,1.5-.8,1.7-2.9.7-5.4,2.4-6.9,4.7,7.2,7.8,16,16.6,25.2,26.6,0,0,.2,0,.2,0,.2,0,.3-.1.5-.2,0,0,0,0,0,0,0,0,.1,0,.2,0,.3-.1.6-.3.8-.4.3-.2.6-.3.8-.5.1,0,.3-.2.4-.3,0,0,0,0,.1-.1,0,0,0,0,0,0,0,0,0,0,0,0,0,0,0,0,0,0,0,0,0,0,0,0,.6-.5,1.3-.5,1.9,0,.5.4.6,1.4.1,1.9-1,.8-2.1,1.5-3.2,2.1,1.4,1.6,2.8,3.1,4.2,4.8-.4.6-.8,1.3-1.2,2-1.5,2.6-3.2,5.2-4.7,7.9-1.1,2.1-2.4,4.1-3.4,6.2-1.2,2.5-2.2,5.1-2.3,7.9.1.3,0,.6.2.9v.7c0,.2-.1.4,0,.6,0,.2,0,.5,0,.7.5,2.2,2.8,2.8,4.2,2.4,2.3-.7,4.2-2,5.7-3.9,1.2-1.5,2.2-3,3.2-4.7,1.5-2.7,3.1-5.3,4.6-8,.6-1,1.1-2,1.7-3,2.9,3.7,5.8,7.5,8.6,11.4,1.4,1.9,5.4-.1,4.2-2.2-3.1-5.3-6-10.8-8.8-16.3,1.1-1.9,2.2-3.9,3.3-5.8,2-3.6,4-7.3,6-10.9,2.4-4.4,4.8-8.7,7.2-13.1,2.3-4.2,4.6-8.4,6.9-12.7,1.6-2.9,3.2-5.8,4.9-8.7,1.5-2.7,3-5.4,4.9-7.9.8-1,1.8-1.6,3-2,1.5-.5,3.2-.6,4.7-1.1,2.2-.7,4.1-1.9,5.5-3.7.9-1,1.3-2.3,2-3.4,1.3-2.3,2.7-4.5,3.9-6.8,1.8-3.2,3.5-6.4,5.2-9.6,2.2-4.1,4.5-8.2,6.6-12.4.6-1.2,1.3-2.4,1.4-3.8,0-.5,0-.9-.4-1.1Z"/>
  <rect class="st1" x="35.4" y="103.9" width="217.3" height="108.1" rx="5.6" ry="5.6"/>
  <g>
    <path class="st2" d="M68.6,154.9v-32.9h23.5v3.2h-19.9v11.8h13.1v3.1h-13.1v14.8h-3.6Z"/>
    <path class="st2" d="M98.9,154.9l13.6-32.9h4.4l13.5,32.9h-3.9l-4.1-10.3h-15.5l-4.2,10.3h-3.8ZM108.1,141.5h13l-6.5-16.1-6.5,16.1Z"/>
    <path class="st2" d="M145.4,154.9v-32.9h14.1c2.2,0,4,.4,5.6,1.2,1.6.8,2.8,1.9,3.7,3.3.9,1.4,1.3,3.1,1.3,5s-.6,4-1.9,5.6c-1.3,1.6-3,2.6-5.1,3.3l7.4,14.6h-4l-7.1-14.1h-10.5v14.1h-3.6ZM149,137.7h10.2c2.2,0,4-.6,5.3-1.7s2-2.6,2-4.6-.7-3.4-2-4.5-3.1-1.7-5.3-1.7h-10.2v12.5Z"/>
    <path class="st2" d="M186.9,154.9v-32.9h5.1l11.2,23.4,11.2-23.4h5.1v32.9h-3.4v-28.8l-12.9,26.4-12.9-26.4v28.7h-3.4Z"/>
    <path class="st2" d="M74.6,174.8l-3,9.9c-.4,1.3-.6,2.3-.6,3,0,.2,0,.4.2.6.1.2.3.3.6.3.4,0,.9-.2,1.4-.5.5-.3.9-.7,1.4-1.2.4-.4.8-.9,1.2-1.4.3-.5.6-.8.8-1.1l1,.6c-.4.8-.9,1.6-1.5,2.4s-1.3,1.4-2,2c-.7.6-1.4,1-2.1,1.4-.7.3-1.4.5-1.9.5-.8,0-1.4-.2-1.8-.5-.4-.4-.6-1-.6-1.8s0-1.1.3-1.9c.2-.8.5-1.9.9-3.3l2.7-8.8h-3.1l.5-1.7h3.1l1.9-6.2h3.3l-1.9,6.2h3.9l-.5,1.7h-3.9Z"/>
    <path class="st2" d="M86.9,191.3c-.8,0-1.6-.2-2.3-.5s-1.3-.8-1.9-1.4-.9-1.4-1.3-2.3c-.3-.9-.5-1.9-.5-3s.3-3.1.9-4.6c.6-1.5,1.4-2.9,2.3-4,1-1.2,2.1-2.1,3.3-2.8,1.2-.7,2.5-1.1,3.8-1.1s1.7.2,2.4.5,1.4.8,1.9,1.4c.5.6.9,1.3,1.2,2.2.3.9.5,1.8.5,2.8,0,1.5-.3,3-.9,4.6-.6,1.5-1.4,2.9-2.4,4.1-1,1.2-2.1,2.2-3.3,3-1.2.8-2.5,1.2-3.8,1.2ZM87.1,189.5c.8,0,1.6-.4,2.4-1.3.8-.8,1.5-1.9,2.2-3.2.6-1.3,1.2-2.7,1.5-4.2.4-1.5.6-3,.6-4.3s-.2-2.1-.7-2.6c-.4-.5-1-.7-1.8-.7s-1.1.2-1.6.6c-.5.4-1.1.9-1.5,1.5-.5.6-.9,1.4-1.4,2.2-.4.8-.8,1.7-1.1,2.7-.3.9-.6,1.9-.7,2.9-.2,1-.3,1.9-.3,2.8,0,1.3.2,2.3.6,2.8.4.6,1,.8,1.7.8Z"/>
    <path class="st2" d="M118.3,190.9v-22.7h-9.1v-2.5h21v2.5h-9.1v22.7h-2.8Z"/>
    <path class="st2" d="M127.3,190.9l10.4-25.2h3.3l10.4,25.2h-3l-3.2-7.9h-11.9l-3.2,7.9h-2.9ZM134.4,180.6h9.9l-5-12.3-5,12.3Z"/>
    <path class="st2" d="M155.3,190.9v-25.2h10.2c1.6,0,3,.3,4.2.8,1.2.5,2.1,1.3,2.8,2.2.6,1,1,2.1,1,3.4s-.3,2.4-1,3.4c-.7,1-1.6,1.7-2.8,2.2,1.5.5,2.7,1.2,3.6,2.3.9,1.1,1.3,2.3,1.3,3.8s-.4,2.7-1.1,3.8c-.7,1.1-1.7,1.9-3,2.5-1.3.6-2.8.9-4.5.9h-10.7ZM158,176.7h7.3c1.6,0,2.9-.4,3.9-1.2,1-.8,1.5-1.8,1.5-3.1s-.5-2.4-1.5-3.1c-1-.8-2.3-1.2-3.9-1.2h-7.3v8.6ZM158,188.5h7.7c1.8,0,3.3-.4,4.4-1.3,1.1-.9,1.6-2,1.6-3.5s-.5-2.6-1.6-3.5-2.5-1.3-4.4-1.3h-7.7v9.5Z"/>
    <path class="st2" d="M179.8,190.9v-25.2h2.8v22.7h15v2.5h-17.8Z"/>
    <path class="st2" d="M202.5,190.9v-25.2h18v2.4h-15.3v8.8h10v2.4h-10v9.1h15.4v2.4h-18.2Z"/>
  </g>
  <g>
    <path class="st0" d="M50.6,235.6c-.5.5-1.2.8-2.1,1.1-.9.3-1.8.4-2.8.4-2,0-3.6-.6-4.9-1.9-1.3-1.3-1.9-2.9-1.9-4.9s.2-2.3.7-3.4c.5-1.1,1.2-2,2.2-2.8,1-.7,2.3-1.1,3.9-1.1s2.1.2,2.9.5c.8.3,1.5.7,1.9,1.1l.4,3-1.9.2-.3-1.9c-.8-.5-1.8-.8-3-.8s-2.3.4-3.1,1.3c-.8.9-1.2,2.1-1.2,3.7s.4,2.9,1.2,3.7c.8.8,1.9,1.2,3.3,1.2s2-.2,2.8-.6l.3-2,1.9.2-.3,3Z"/>
    <path class="st0" d="M62.1,232.2c0,1.5-.5,2.7-1.4,3.6-.9.9-2.1,1.4-3.6,1.4s-2.6-.4-3.5-1.3-1.3-2-1.3-3.5.4-2.6,1.2-3.5c.8-1,2.1-1.5,3.7-1.5s2.9.5,3.7,1.5c.8,1,1.2,2.1,1.2,3.5ZM59.8,232.1c0-1-.2-1.8-.7-2.3-.5-.5-1.1-.8-1.9-.8s-1.4.3-1.9.9c-.4.6-.7,1.3-.7,2.3s.2,1.7.6,2.3c.4.6,1.1.9,1.9.9s1.4-.3,1.9-.9c.5-.6.7-1.4.7-2.3Z"/>
    <path class="st0" d="M80.7,236.9h-4.2v-1.7h.5v-3.7c0-.9-.2-1.5-.5-1.9s-.8-.6-1.3-.6-1.3.3-1.6.8c-.3.5-.5,1.1-.5,1.7v3.7h1.4v1.7h-4.2v-1.7h.5v-3.7c0-.9-.2-1.5-.5-1.9-.3-.4-.8-.6-1.3-.6s-1.3.2-1.6.7c-.4.5-.5,1.1-.5,1.7v3.7h1.8v1.7h-5.4v-1.7h1.4v-6h-1.4v-1.7h3.6v1.6c.3-.5.7-.9,1.2-1.3.5-.3,1.1-.5,1.8-.5s1.3.2,1.9.5c.6.3,1,.9,1.2,1.6.3-.6.7-1.2,1.2-1.5s1.2-.6,2-.6,1.6.3,2.2.8c.6.5,1,1.4,1,2.6v4.5h1.4v1.7Z"/>
    <path class="st0" d="M99,236.9h-4.2v-1.7h.5v-3.7c0-.9-.2-1.5-.5-1.9s-.8-.6-1.3-.6-1.3.3-1.6.8c-.3.5-.5,1.1-.5,1.7v3.7h1.4v1.7h-4.2v-1.7h.5v-3.7c0-.9-.2-1.5-.5-1.9-.3-.4-.8-.6-1.3-.6s-1.3.2-1.6.7c-.4.5-.5,1.1-.5,1.7v3.7h1.8v1.7h-5.4v-1.7h1.4v-6h-1.4v-1.7h3.6v1.6c.3-.5.7-.9,1.2-1.3.5-.3,1.1-.5,1.8-.5s1.3.2,1.9.5c.6.3,1,.9,1.2,1.6.3-.6.7-1.2,1.2-1.5s1.2-.6,2-.6,1.6.3,2.2.8c.6.5,1,1.4,1,2.6v4.5h1.4v1.7Z"/>
    <path class="st0" d="M111,236.9h-3.7v-1.6c-.6,1.2-1.7,1.8-3.1,1.8s-1.7-.3-2.3-.8c-.7-.5-1-1.4-1-2.6v-4.5h-1.4v-1.7h3.7v5.4c0,.9.2,1.5.5,1.9.3.4.8.6,1.4.6s1.3-.2,1.7-.7c.4-.5.6-1.1.6-1.7v-3.7h-1.7v-1.7h3.9v7.7h1.5v1.7Z"/>
    <path class="st0" d="M123.4,236.9h-5v-1.7h1.4v-3.7c0-.9-.2-1.5-.5-1.9-.3-.4-.8-.6-1.3-.6s-1.3.2-1.7.7-.6,1-.6,1.7v3.8h1.4v1.7h-5.1v-1.7h1.4v-6h-1.5v-1.7h3.7v1.5c.7-1.1,1.7-1.7,3.1-1.7s1.7.3,2.3.8c.6.5,1,1.4,1,2.6v4.5h1.4v1.7Z"/>
    <path class="st0" d="M129.4,236.9h-5v-1.7h1.4v-6h-1.5v-1.7h3.7v7.7h1.4v1.7ZM125.6,225.5v-2.5h2.3v2.5h-2.3Z"/>
    <path class="st0" d="M138,234.1c-.3,2-1.4,3-3.3,3s-1.8-.3-2.4-.8-.9-1.3-.9-2.2v-5h-1.4v-1.7h1.4v-2.9h2.2v2.9h3.5v1.7h-3.5v4.6c0,1,.4,1.5,1.3,1.5s.5,0,.8-.3c.3-.2.5-.6.6-1.4l1.7.5Z"/>
    <path class="st0" d="M148.6,229.2h-1l-3.1,7.7-1,2.7h1.4v1.8h-5v-1.8h1.6l.9-2.6-3.3-7.8h-1v-1.7h4.6v1.7h-1.2l2.2,5.1h.1l1.8-5.1h-1.1v-1.7h4.2v1.7Z"/>
    <path class="st0" d="M163.3,232.9c0,1.4-.5,2.4-1.4,3.1-.9.7-2.2,1.1-3.7,1.1s-1.8-.1-2.7-.3c-.9-.2-1.5-.5-2-1l.4-3.1,1.9.2v1.7c.4.2.8.4,1.2.5.4,0,.7,0,1.1,0,.8,0,1.5-.1,2-.4.5-.3.8-.8.8-1.6s-.3-1.4-.9-1.7c-.6-.3-1.3-.5-2.1-.7-.6-.1-1.3-.3-2-.5s-1.2-.6-1.6-1c-.4-.5-.7-1.2-.7-2.2,0-1.4.5-2.5,1.5-3.1,1-.6,2.1-.9,3.3-.9s1.7.1,2.4.4,1.4.6,1.9,1v2.9c.1,0-1.7.2-1.7.2l-.2-1.8c-.4-.2-.8-.4-1.2-.5s-.8-.1-1.1-.1c-.7,0-1.2.1-1.6.4-.4.3-.7.7-.7,1.3s.3,1.2.8,1.4c.5.2,1.1.4,1.8.6.6.1,1.2.3,2,.5.7.2,1.4.6,1.9,1.1s.8,1.4.8,2.5Z"/>
    <path class="st0" d="M175.8,236.9h-3.7v-1.6c-.6,1.2-1.7,1.8-3.1,1.8s-1.7-.3-2.3-.8c-.7-.5-1-1.4-1-2.6v-4.5h-1.4v-1.7h3.7v5.4c0,.9.2,1.5.5,1.9s.8.6,1.4.6,1.3-.2,1.7-.7c.4-.5.6-1.1.6-1.7v-3.7h-1.7v-1.7h3.9v7.7h1.5v1.7Z"/>
    <path class="st0" d="M187.4,231.9c0,1.3-.4,2.5-1.1,3.6-.7,1.1-1.8,1.6-3.3,1.6s-2.3-.5-3-1.5v4h1.9v1.8h-5.5v-1.8h1.4v-10.4h-1.5v-1.7h3.7v1.9c.3-.6.7-1,1.2-1.4s1.2-.6,2.1-.6,2.2.4,2.9,1.2c.7.8,1.1,2,1.1,3.4ZM185.1,232.2c0-1-.2-1.8-.7-2.3-.5-.5-1-.8-1.8-.8s-1.4.3-1.8.9c-.4.6-.7,1.2-.7,2v.7c0,.8.2,1.4.7,1.9.5.5,1,.7,1.8.7s1.4-.3,1.9-.8c.4-.6.7-1.3.7-2.3Z"/>
    <path class="st0" d="M199.2,231.9c0,1.3-.4,2.5-1.1,3.6-.7,1.1-1.8,1.6-3.3,1.6s-2.3-.5-3-1.5v4h1.9v1.8h-5.5v-1.8h1.4v-10.4h-1.5v-1.7h3.7v1.9c.3-.6.7-1,1.2-1.4s1.2-.6,2.1-.6,2.2.4,2.9,1.2c.7.8,1.1,2,1.1,3.4ZM196.9,232.2c0-1-.2-1.8-.7-2.3-.5-.5-1-.8-1.8-.8s-1.4.3-1.8.9c-.4.6-.7,1.2-.7,2v.7c0,.8.2,1.4.7,1.9.5.5,1,.7,1.8.7s1.4-.3,1.9-.8c.4-.6.7-1.3.7-2.3Z"/>
    <path class="st0" d="M210.1,232.2c0,1.5-.5,2.7-1.4,3.6-.9.9-2.1,1.4-3.6,1.4s-2.6-.4-3.5-1.3-1.3-2-1.3-3.5.4-2.6,1.2-3.5,2.1-1.5,3.7-1.5,2.9.5,3.7,1.5c.8,1,1.2,2.1,1.2,3.5ZM207.8,232.1c0-1-.2-1.8-.7-2.3-.5-.5-1.1-.8-1.9-.8s-1.4.3-1.9.9c-.4.6-.7,1.3-.7,2.3s.2,1.7.6,2.3c.4.6,1.1.9,1.9.9s1.4-.3,1.9-.9c.5-.6.7-1.4.7-2.3Z"/>
    <path class="st0" d="M217.1,227.3c.6,0,1.2.2,1.8.5l.4,2.9-1.7.2-.4-1.6c-.3-.1-.5-.2-.7-.2-.4,0-.7.2-1,.5-.3.3-.4.8-.4,1.3v4.2h1.9v1.7h-5.5v-1.7h1.4v-6h-1.5v-1.7h3.5v1.8c.2-.5.4-1,.8-1.4.4-.4.9-.6,1.5-.6Z"/>
    <path class="st0" d="M228,234.1c-.3,2-1.4,3-3.3,3s-1.8-.3-2.4-.8-.9-1.3-.9-2.2v-5h-1.4v-1.7h1.4v-2.9h2.2v2.9h3.5v1.7h-3.5v4.6c0,1,.4,1.5,1.3,1.5s.5,0,.8-.3c.3-.2.5-.6.6-1.4l1.7.5Z"/>
    <path class="st0" d="M237.4,234c0,.8-.5,1.5-1.2,2.2-.7.6-1.7.9-3,.9s-2.5-.4-3.4-1.2c-.9-.8-1.3-2-1.3-3.6s.4-2.6,1.2-3.6,1.9-1.4,3.4-1.4,2.3.4,3.1,1.2c.8.8,1.2,1.8,1.2,3,0,.4,0,.8-.1,1.3h-6.4c.1,1.8,1,2.6,2.5,2.6s1.2-.2,1.6-.5c.3-.3.5-.7.6-1.1l1.9.4ZM235,231.3c0-.6,0-1.1-.4-1.6-.3-.5-.8-.7-1.6-.7s-1.2.2-1.5.7c-.3.4-.6,1-.7,1.7h4.2Z"/>
    <path class="st0" d="M249.5,236.9h-3.6v-1.8c-.3.5-.7,1-1.2,1.4-.5.4-1.2.6-2.1.6-1.2,0-2.2-.4-2.9-1.3-.7-.8-1.1-2-1.1-3.5s.3-2.5,1-3.6,1.7-1.5,3.2-1.5,1.4.2,1.9.5.9.7,1.2,1.2v-4.8h-2v-1.7h4.3v12.7h1.4v1.7ZM245.8,232.4v-.7c0-.8-.3-1.4-.7-1.9s-1-.7-1.7-.7-1.4.3-1.8.9c-.5.6-.7,1.3-.7,2.3s.2,1.8.7,2.3c.5.5,1,.8,1.7.8s1.4-.3,1.8-.9.7-1.3.7-2Z"/>
    <path class="st0" d="M104.2,263.9h-5.2v-2h1.4l-.7-1.9h-5.1l-.7,1.9h1.5v2h-5.2v-2h1.3l4.1-9.7h-2v-2h4.4l4.9,11.7h1.3v2ZM99,258.3l-1.8-4.7h-.1l-1.9,4.7h3.8Z"/>
    <path class="st0" d="M115.3,256.2h-1.4v7.3c0,1.5-.4,2.7-1.2,3.6-.8.9-2.1,1.4-3.7,1.4s-1.9-.2-2.8-.6c-.9-.4-1.5-1.1-1.8-2.2l1.7-.9c.6,1.3,1.5,1.9,2.9,1.9s1.4-.3,1.9-.8c.5-.6.8-1.4.8-2.4v-1.4c-.3.5-.6.9-1.1,1.3-.5.4-1.2.5-2,.5s-2.1-.4-2.9-1.2c-.8-.8-1.2-1.9-1.2-3.4s.4-2.5,1.1-3.6,1.8-1.5,3.1-1.5,2.4.6,3,1.7v-1.5h3.6v1.7ZM111.7,259.4v-.8c0-.8-.2-1.4-.7-1.9-.4-.5-1-.7-1.7-.7s-1.4.3-1.8.9c-.4.6-.6,1.3-.6,2.3s.2,1.7.6,2.2c.4.5,1,.7,1.6.7s1.4-.3,1.9-.8.7-1.2.7-1.9Z"/>
    <path class="st0" d="M122,254.3c.6,0,1.2.2,1.8.5l.4,2.9-1.7.2-.4-1.6c-.3-.1-.5-.2-.7-.2-.4,0-.7.2-1,.5-.3.3-.4.8-.4,1.3v4.2h1.9v1.7h-5.5v-1.7h1.4v-6h-1.5v-1.7h3.5v1.8c.2-.5.4-1,.8-1.4.4-.4.9-.6,1.5-.6Z"/>
    <path class="st0" d="M130.5,263.9h-5v-1.7h1.4v-6h-1.5v-1.7h3.7v7.7h1.4v1.7ZM126.7,252.5v-2.5h2.3v2.5h-2.3Z"/>
    <path class="st0" d="M140.2,260.5c0,.8-.5,1.6-1.1,2.4-.6.8-1.7,1.2-3.1,1.2s-2.4-.4-3.3-1.2c-.8-.8-1.3-2-1.3-3.5s.4-2.8,1.3-3.7c.9-.9,2-1.4,3.4-1.4s1.1,0,1.7.2c.6.1,1.1.4,1.7.7l.4,2.6-1.8.2-.3-1.6c-.5-.3-1.1-.4-1.6-.4-1.6,0-2.4,1-2.4,3.1s.8,3.1,2.4,3.1,1.9-.7,2.1-2.1l1.9.4Z"/>
    <path class="st0" d="M152.4,263.9h-3.7v-1.6c-.6,1.2-1.7,1.8-3.1,1.8s-1.7-.3-2.3-.8c-.7-.5-1-1.4-1-2.6v-4.5h-1.4v-1.7h3.7v5.4c0,.9.2,1.5.5,1.9.3.4.8.6,1.4.6s1.3-.2,1.7-.7c.4-.5.6-1.1.6-1.7v-3.7h-1.7v-1.7h3.9v7.7h1.5v1.7Z"/>
    <path class="st0" d="M158.2,263.9h-5v-1.7h1.4v-11h-1.5v-1.7h3.7v12.7h1.4v1.7Z"/>
    <path class="st0" d="M166.8,261.1c-.3,2-1.4,3-3.3,3s-1.8-.3-2.4-.8-.9-1.3-.9-2.2v-5h-1.4v-1.7h1.4v-2.9h2.2v2.9h3.5v1.7h-3.5v4.6c0,1,.4,1.5,1.3,1.5s.5,0,.8-.3c.3-.2.5-.6.6-1.4l1.7.5Z"/>
    <path class="st0" d="M178.5,263.9h-3.7v-1.6c-.6,1.2-1.7,1.8-3.1,1.8s-1.7-.3-2.3-.8c-.7-.5-1-1.4-1-2.6v-4.5h-1.4v-1.7h3.7v5.4c0,.9.2,1.5.5,1.9s.8.6,1.4.6,1.3-.2,1.7-.7c.4-.5.6-1.1.6-1.7v-3.7h-1.7v-1.7h3.9v7.7h1.5v1.7Z"/>
    <path class="st0" d="M185.2,254.3c.6,0,1.2.2,1.8.5l.4,2.9-1.7.2-.4-1.6c-.3-.1-.5-.2-.7-.2-.4,0-.7.2-1,.5-.3.3-.4.8-.4,1.3v4.2h1.9v1.7h-5.5v-1.7h1.4v-6h-1.5v-1.7h3.5v1.8c.2-.5.4-1,.8-1.4.4-.4.9-.6,1.5-.6Z"/>
    <path class="st0" d="M197.4,261c0,.8-.5,1.5-1.2,2.2-.7.6-1.7.9-3,.9s-2.5-.4-3.4-1.2c-.9-.8-1.3-2-1.3-3.6s.4-2.6,1.2-3.6,1.9-1.4,3.4-1.4,2.3.4,3.1,1.2c.8.8,1.2,1.8,1.2,3,0,.4,0,.8-.1,1.3h-6.4c.1,1.8,1,2.6,2.5,2.6s1.2-.2,1.6-.5c.3-.3.5-.7.6-1.1l1.9.4ZM195,258.3c0-.6,0-1.1-.4-1.6-.3-.5-.8-.7-1.6-.7s-1.2.2-1.5.7c-.3.4-.6,1-.7,1.7h4.2Z"/>
  </g>
</svg>